<?xml version="1.0" encoding="UTF-8" standalone="no"?>
<!-- Generator: Adobe Illustrator 14.0.0, SVG Export Plug-In . SVG Version: 6.00 Build 43363)  -->

<svg
   xmlns:dc="http://purl.org/dc/elements/1.1/"
   xmlns:cc="http://creativecommons.org/ns#"
   xmlns:rdf="http://www.w3.org/1999/02/22-rdf-syntax-ns#"
   xmlns:svg="http://www.w3.org/2000/svg"
   xmlns="http://www.w3.org/2000/svg"
   xmlns:xlink="http://www.w3.org/1999/xlink"
   xmlns:sodipodi="http://sodipodi.sourceforge.net/DTD/sodipodi-0.dtd"
   xmlns:inkscape="http://www.inkscape.org/namespaces/inkscape"
   version="1.1"
   id="Layer_1"
   x="0px"
   y="0px"
   width="232px"
   height="232px"
   viewBox="167.354 0.051 232 232"
   enable-background="new 167.354 0.051 232 232"
   xml:space="preserve"
   inkscape:version="0.48.1 r9760"
   sodipodi:docname="favicon.svg"><metadata
   id="metadata66"><rdf:RDF><cc:Work
       rdf:about=""><dc:format>image/svg+xml</dc:format><dc:type
         rdf:resource="http://purl.org/dc/dcmitype/StillImage" /></cc:Work></rdf:RDF></metadata><defs
   id="defs64" /><sodipodi:namedview
   pagecolor="#ffffff"
   bordercolor="#666666"
   borderopacity="1"
   objecttolerance="10"
   gridtolerance="10"
   guidetolerance="10"
   inkscape:pageopacity="0"
   inkscape:pageshadow="2"
   inkscape:window-width="640"
   inkscape:window-height="480"
   id="namedview62"
   showgrid="false"
   inkscape:zoom="1.1206897"
   inkscape:cx="116"
   inkscape:cy="116"
   inkscape:window-x="0"
   inkscape:window-y="0"
   inkscape:window-maximized="0"
   inkscape:current-layer="Layer_1" />
<line
   fill="none"
   x1="348.429"
   y1="83.513"
   x2="372.282"
   y2="63.868"
   id="line3" />
<line
   fill="none"
   stroke="#EF5AA0"
   x1="348.429"
   y1="83.513"
   x2="372.282"
   y2="63.868"
   id="line5" />
<g
   id="g7">
	<defs
   id="defs9">
		<rect
   id="SVGID_1_"
   x="76.566"
   y="3.695"
   width="459.577"
   height="224.714" />
	</defs>
	<clipPath
   id="SVGID_2_">
		<use
   xlink:href="#SVGID_1_"
   overflow="visible"
   id="use13" />
	</clipPath>
	<path
   clip-path="url(#SVGID_2_)"
   fill="none"
   stroke="#EF5AA0"
   d="M389.943,57.117c0,5.525-4.484,10.022-10.017,10.022   c-5.565,0-10.054-4.497-10.054-10.022c0-5.562,4.486-10.048,10.054-10.048C385.458,47.071,389.943,51.555,389.943,57.117z"
   id="path15" />
</g>
<line
   fill="none"
   x1="253.131"
   y1="86.762"
   x2="202.337"
   y2="34.606"
   id="line17" />
<line
   fill="none"
   stroke="#EF5AA0"
   x1="253.131"
   y1="86.762"
   x2="202.337"
   y2="34.606"
   id="line19" />
<g
   id="g21">
	<path
   fill="none"
   stroke="#EF5AA0"
   d="M190.719,6.44c8.87-0.745,16.682,5.894,17.413,14.744   c0.751,8.896-5.849,16.727-14.734,17.448c-8.905,0.756-16.735-5.858-17.458-14.764C175.198,14.994,181.814,7.198,190.719,6.44z"
   id="path23" />
</g>
<line
   fill="none"
   x1="264.943"
   y1="199.575"
   x2="253.193"
   y2="217.5"
   id="line25" />
<line
   fill="none"
   stroke="#EF5AA0"
   x1="264.943"
   y1="199.575"
   x2="253.193"
   y2="217.5"
   id="line27" />
<g
   id="g29">
	<path
   fill="#EF5AA0"
   d="M246.515,222.499c-0.784-2.515,0.609-5.168,3.125-5.943c2.509-0.801,5.174,0.607,5.955,3.121   c0.782,2.515-0.612,5.168-3.131,5.955C249.967,226.407,247.299,225.002,246.515,222.499"
   id="path31" />
</g>
<g
   id="g33">
	<path
   fill="none"
   stroke="#EF5AA0"
   d="M246.515,222.499c-0.784-2.515,0.609-5.168,3.125-5.943c2.509-0.801,5.174,0.607,5.955,3.121   c0.782,2.515-0.612,5.168-3.131,5.955C249.967,226.407,247.299,225.002,246.515,222.499z"
   id="path35" />
</g>
<g
   id="g37">
	<defs
   id="defs39">
		<path
   id="SVGID_3_"
   d="m 274.578,176.511 c -13.746,-7.841 -20.598,-19.419 -20.598,-34.693 0,-0.823 0.002,-1.649 0.014,-2.476 0.028,-2.159 0.129,-4.317 0.469,-6.451 0.426,-2.676 1.114,-5.292 2.068,-7.823 1.801,-4.785 4.817,-10.664 8.815,-14.006 9.069,-7.585 18.601,-11.369 28.588,-11.369 h 1.869 c 8.799,0 17.276,2.857 25.479,8.608 10.053,8.353 15.078,19.036 15.078,31.938 0,9.502 -2.859,18.319 -8.591,26.459 -8.934,9.812 -19.606,14.768 -31.971,14.768 h -1.869 c -6.043,-0.001 -12.504,-1.675 -19.351,-4.955 M 336.642,91.97 v 22.147 C 327.25,99.588 312.789,92.29 293.332,92.29 c -2.211,0 -6.401,0.639 -12.606,1.854 -12.416,3.62 -21.817,10.918 -28.306,21.827 -4.053,8.765 -6.125,16.884 -6.125,24.269 0,4.75 0.938,10.291 2.775,16.646 3.35,9.98 9.118,17.779 17.219,23.343 7.976,5.729 18.019,8.576 30.111,8.576 h 2.784 c 2.689,0 6.26,-0.601 10.734,-1.847 12.137,-3.978 21.053,-10.558 26.721,-19.653 v 21.5 h 6.787 V 91.97 h -6.784 l 0,0 z"
   inkscape:connector-curvature="0" />
	</defs>
	<clipPath
   id="SVGID_4_">
		<use
   xlink:href="#SVGID_3_"
   overflow="visible"
   id="use43"
   style="overflow:visible"
   x="0"
   y="0"
   width="232"
   height="232" />
	</clipPath>
	
		<linearGradient
   id="SVGID_5_"
   gradientUnits="userSpaceOnUse"
   x1="-425.11569"
   y1="93.970497"
   x2="-424.11569"
   y2="93.970497"
   gradientTransform="matrix(97.1333,0,0,97.1333,41539.195,-8987.2969)">
		<stop
   offset="0"
   stop-color="#36C1F1"
   id="stop46" />
		<stop
   offset="0.5"
   stop-color="#179EDA"
   id="stop48" />
		<stop
   offset="1"
   stop-color="#1E8CCC"
   id="stop50" />
	</linearGradient>
	<rect
   x="246.297"
   y="91.970001"
   clip-path="url(#SVGID_4_)"
   width="97.132004"
   height="96.834999"
   id="rect52"
   style="fill:url(#SVGID_5_)" />
</g>
<g
   id="g54">
	<path
   fill="#EF5AA0"
   d="M184.254,27.479c-2.737-4.304-1.465-9.989,2.844-12.708c4.299-2.759,9.993-1.479,12.73,2.822   c2.726,4.315,1.469,9.992-2.85,12.731C192.697,33.061,186.987,31.772,184.254,27.479"
   id="path56" />
</g>
<g
   id="g58">
	<path
   fill="none"
   stroke="#EF5AA0"
   d="M184.254,27.479c-2.737-4.304-1.465-9.989,2.844-12.708c4.299-2.759,9.993-1.479,12.73,2.822   c2.726,4.315,1.469,9.992-2.85,12.731C192.697,33.061,186.987,31.772,184.254,27.479z"
   id="path60" />
</g>
</svg>