<?xml version="1.0" encoding="UTF-8" standalone="no"?>
<!-- Generator: Adobe Illustrator 14.0.0, SVG Export Plug-In . SVG Version: 6.00 Build 43363)  -->

<svg
   xmlns:dc="http://purl.org/dc/elements/1.1/"
   xmlns:cc="http://creativecommons.org/ns#"
   xmlns:rdf="http://www.w3.org/1999/02/22-rdf-syntax-ns#"
   xmlns:svg="http://www.w3.org/2000/svg"
   xmlns="http://www.w3.org/2000/svg"
   xmlns:xlink="http://www.w3.org/1999/xlink"
   xmlns:sodipodi="http://sodipodi.sourceforge.net/DTD/sodipodi-0.dtd"
   xmlns:inkscape="http://www.inkscape.org/namespaces/inkscape"
   version="1.1"
   id="Layer_1"
   x="0px"
   y="0px"
   width="538.933px"
   height="266.351px"
   viewBox="-1.399 0 538.933 266.351"
   enable-background="new -1.399 0 538.933 266.351"
   xml:space="preserve"
   inkscape:version="0.48.1 r9760"
   sodipodi:docname="logo.svg"><metadata
   id="metadata224"><rdf:RDF><cc:Work
       rdf:about=""><dc:format>image/svg+xml</dc:format><dc:type
         rdf:resource="http://purl.org/dc/dcmitype/StillImage" /></cc:Work></rdf:RDF></metadata><defs
   id="defs222" /><sodipodi:namedview
   pagecolor="#ffffff"
   bordercolor="#666666"
   borderopacity="1"
   objecttolerance="10"
   gridtolerance="10"
   guidetolerance="10"
   inkscape:pageopacity="0"
   inkscape:pageshadow="2"
   inkscape:window-width="640"
   inkscape:window-height="480"
   id="namedview220"
   showgrid="false"
   inkscape:zoom="0.93332569"
   inkscape:cx="269.46649"
   inkscape:cy="133.17551"
   inkscape:window-x="0"
   inkscape:window-y="0"
   inkscape:window-maximized="0"
   inkscape:current-layer="Layer_1" />
<g
   id="g3">
	<line
   x1="323.55399"
   y1="93.692001"
   x2="351.978"
   y2="70.283997"
   id="line5"
   style="fill:none" />
	<line
   x1="323.55399"
   y1="93.692001"
   x2="351.978"
   y2="70.283997"
   id="line7"
   style="fill:none;stroke:#ef5aa0" />
	<g
   id="g9">
		<g
   id="g11">
			<g
   id="g13">
				<g
   id="g15">
					<g
   id="g17">
						<defs
   id="defs19">
							<rect
   id="SVGID_1_"
   x="-0.39899999"
   y="-1.42"
   width="547.63501"
   height="267.771" />
						</defs>
						<clipPath
   id="SVGID_2_">
							<use
   xlink:href="#SVGID_1_"
   overflow="visible"
   id="use23"
   style="overflow:visible"
   x="0"
   y="0"
   width="538.93298"
   height="266.35101" />
						</clipPath>
						<path
   clip-path="url(#SVGID_2_)"
   d="m 373.023,62.239 c 0,6.583 -5.345,11.942 -11.937,11.942 -6.632,0 -11.981,-5.359 -11.981,-11.942 0,-6.628 5.346,-11.974 11.981,-11.974 6.593,0.002 11.937,5.346 11.937,11.974 z"
   id="path25"
   inkscape:connector-curvature="0"
   style="fill:none;stroke:#ef5aa0" />
					</g>
				</g>
			</g>
		</g>
	</g>
	<line
   x1="209.996"
   y1="97.563004"
   x2="149.47"
   y2="35.414001"
   id="line27"
   style="fill:none" />
	<line
   x1="209.996"
   y1="97.563004"
   x2="149.47"
   y2="35.414001"
   id="line29"
   style="fill:none;stroke:#ef5aa0" />
	<g
   id="g31">
		<g
   id="g33">
			<g
   id="g35">
				<g
   id="g37">
					<g
   id="g39">
						<defs
   id="defs41">
							<rect
   id="SVGID_3_"
   x="-0.39899999"
   y="-1.42"
   width="547.63501"
   height="267.771" />
						</defs>
						<clipPath
   id="SVGID_4_">
							<use
   xlink:href="#SVGID_3_"
   overflow="visible"
   id="use45"
   style="overflow:visible"
   x="0"
   y="0"
   width="538.93298"
   height="266.35101" />
						</clipPath>
						<path
   clip-path="url(#SVGID_4_)"
   d="m 135.626,1.852 c 10.57,-0.888 19.879,7.023 20.75,17.569 0.895,10.601 -6.969,19.933 -17.558,20.791 -10.61,0.901 -19.94,-6.981 -20.803,-17.592 -0.883,-10.575 7,-19.864 17.611,-20.768 z"
   id="path47"
   inkscape:connector-curvature="0"
   style="fill:none;stroke:#ef5aa0" />
					</g>
				</g>
			</g>
		</g>
	</g>
	<line
   x1="224.07201"
   y1="231.993"
   x2="210.071"
   y2="253.35201"
   id="line49"
   style="fill:none" />
	<line
   x1="224.07201"
   y1="231.993"
   x2="210.071"
   y2="253.35201"
   id="line51"
   style="fill:none;stroke:#ef5aa0" />
	<g
   id="g53">
		<g
   id="g55">
			<g
   id="g57">
				<g
   id="g59">
					<g
   id="g61">
						<defs
   id="defs63">
							<rect
   id="SVGID_5_"
   x="-0.39899999"
   y="-1.42"
   width="547.63501"
   height="267.771" />
						</defs>
						<clipPath
   id="SVGID_6_">
							<use
   xlink:href="#SVGID_5_"
   overflow="visible"
   id="use67"
   style="overflow:visible"
   x="0"
   y="0"
   width="538.93298"
   height="266.35101" />
						</clipPath>
						<path
   clip-path="url(#SVGID_6_)"
   d="m 202.111,259.309 c -0.935,-2.997 0.728,-6.158 3.724,-7.082 2.99,-0.955 6.166,0.724 7.096,3.72 0.934,2.996 -0.729,6.157 -3.73,7.095 -2.976,0.923 -6.156,-0.751 -7.09,-3.733"
   id="path69"
   inkscape:connector-curvature="0"
   style="fill:#ef5aa0" />
					</g>
				</g>
			</g>
		</g>
		<g
   id="g71">
			<g
   id="g73">
				<g
   id="g75">
					<g
   id="g77">
						<defs
   id="defs79">
							<rect
   id="SVGID_7_"
   x="-0.39899999"
   y="-1.42"
   width="547.63501"
   height="267.771" />
						</defs>
						<clipPath
   id="SVGID_8_">
							<use
   xlink:href="#SVGID_7_"
   overflow="visible"
   id="use83"
   style="overflow:visible"
   x="0"
   y="0"
   width="538.93298"
   height="266.35101" />
						</clipPath>
						<path
   clip-path="url(#SVGID_8_)"
   d="m 202.111,259.309 c -0.935,-2.997 0.728,-6.158 3.724,-7.082 2.99,-0.955 6.166,0.724 7.096,3.72 0.934,2.996 -0.729,6.157 -3.73,7.095 -2.976,0.923 -6.156,-0.751 -7.09,-3.733 z"
   id="path85"
   inkscape:connector-curvature="0"
   style="fill:none;stroke:#ef5aa0" />
					</g>
				</g>
			</g>
		</g>
	</g>
	<g
   id="g87">
		<g
   id="g89">
			<g
   id="g91">
				<g
   id="g93">
					<g
   id="g95">
						<defs
   id="defs97">
							<path
   id="SVGID_9_"
   d="m 235.553,204.509 c -16.38,-9.344 -24.545,-23.14 -24.545,-41.342 0,-0.979 0.002,-1.964 0.018,-2.948 0.032,-2.573 0.154,-5.146 0.557,-7.688 0.508,-3.188 1.329,-6.307 2.466,-9.322 2.146,-5.702 5.739,-12.707 10.503,-16.689 10.809,-9.039 22.165,-13.548 34.065,-13.548 h 2.228 c 10.484,0 20.588,3.404 30.362,10.258 11.979,9.952 17.967,22.683 17.967,38.058 0,11.323 -3.407,21.828 -10.236,31.529 -10.647,11.691 -23.363,17.598 -38.097,17.598 h -2.228 c -7.202,-0.003 -14.901,-1.998 -23.06,-5.906 M 309.508,103.77 v 26.391 c -11.191,-17.313 -28.424,-26.009 -51.608,-26.009 -2.635,0 -7.629,0.761 -15.023,2.208 -14.795,4.314 -25.997,13.011 -33.728,26.01 -4.829,10.443 -7.298,20.118 -7.298,28.92 0,5.66 1.117,12.263 3.307,19.835 3.992,11.892 10.865,21.186 20.519,27.815 9.502,6.827 21.47,10.219 35.88,10.219 h 3.318 c 3.204,0 7.459,-0.716 12.791,-2.201 14.463,-4.74 25.088,-12.581 31.842,-23.418 v 25.619 h 8.087 V 103.77 h -8.087 l 0,0 z"
   inkscape:connector-curvature="0" />
						</defs>
						<clipPath
   id="SVGID_10_">
							<use
   xlink:href="#SVGID_9_"
   overflow="visible"
   id="use101"
   style="overflow:visible"
   x="0"
   y="0"
   width="538.93298"
   height="266.35101" />
						</clipPath>
						
							<linearGradient
   id="SVGID_11_"
   gradientUnits="userSpaceOnUse"
   x1="-587.59961"
   y1="319.99438"
   x2="-586.4082"
   y2="319.99438"
   gradientTransform="matrix(97.1333,0,0,-97.1333,57277.383,31243.648)">
							<stop
   offset="0"
   stop-color="#36C1F1"
   id="stop104" />
							<stop
   offset="0.5"
   stop-color="#179EDA"
   id="stop106" />
							<stop
   offset="1"
   stop-color="#1E8CCC"
   id="stop108" />
						</linearGradient>
						<rect
   x="201.85201"
   y="103.77"
   clip-path="url(#SVGID_10_)"
   width="115.743"
   height="115.389"
   id="rect110"
   style="fill:url(#SVGID_11_)" />
					</g>
				</g>
			</g>
		</g>
	</g>
	<g
   id="g112">
		<g
   id="g114">
			<g
   id="g116">
				<g
   id="g118">
					<g
   id="g120">
						<defs
   id="defs122">
							<rect
   id="SVGID_12_"
   x="-0.39899999"
   y="-1.42"
   width="547.63501"
   height="267.771" />
						</defs>
						<clipPath
   id="SVGID_13_">
							<use
   xlink:href="#SVGID_12_"
   overflow="visible"
   id="use126"
   style="overflow:visible"
   x="0"
   y="0"
   width="538.93298"
   height="266.35101" />
						</clipPath>
						<path
   clip-path="url(#SVGID_13_)"
   d="m 127.922,26.922 c -3.262,-5.128 -1.746,-11.902 3.389,-15.143 5.123,-3.287 11.908,-1.762 15.17,3.363 3.248,5.142 1.75,11.906 -3.397,15.171 -5.101,3.26 -11.904,1.724 -15.162,-3.391"
   id="path128"
   inkscape:connector-curvature="0"
   style="fill:#ef5aa0" />
					</g>
				</g>
			</g>
		</g>
		<g
   id="g130">
			<g
   id="g132">
				<g
   id="g134">
					<g
   id="g136">
						<defs
   id="defs138">
							<rect
   id="SVGID_14_"
   x="-0.39899999"
   y="-1.42"
   width="547.63501"
   height="267.771" />
						</defs>
						<clipPath
   id="SVGID_15_">
							<use
   xlink:href="#SVGID_14_"
   overflow="visible"
   id="use142"
   style="overflow:visible"
   x="0"
   y="0"
   width="538.93298"
   height="266.35101" />
						</clipPath>
						<path
   clip-path="url(#SVGID_15_)"
   d="m 127.922,26.922 c -3.262,-5.128 -1.746,-11.902 3.389,-15.143 5.123,-3.287 11.908,-1.762 15.17,3.363 3.248,5.142 1.75,11.906 -3.397,15.171 -5.101,3.26 -11.904,1.724 -15.162,-3.391 z"
   id="path144"
   inkscape:connector-curvature="0"
   style="fill:none;stroke:#ef5aa0" />
					</g>
				</g>
			</g>
		</g>
		<g
   id="g146">
			<g
   id="g148">
				<g
   id="g150">
					<g
   id="g152">
						<defs
   id="defs154">
							<rect
   id="SVGID_16_"
   x="-0.39899999"
   y="-1.42"
   width="547.63501"
   height="267.771" />
						</defs>
						<clipPath
   id="SVGID_17_">
							<use
   xlink:href="#SVGID_16_"
   overflow="visible"
   id="use158"
   style="overflow:visible"
   x="0"
   y="0"
   width="538.93298"
   height="266.35101" />
						</clipPath>
						<path
   clip-path="url(#SVGID_17_)"
   d="m 29.945,93.984 h 53.454 v 5.842 H 34.738 c -8.294,0 -13.888,0.876 -16.794,2.657 -8.131,4.459 -12.229,11.753 -12.229,21.819 0,9.597 4.435,16.886 13.321,21.812 3.459,1.25 6.385,1.896 8.802,1.896 h 36.425 c 3.562,0 8.124,1.835 13.589,5.594 7.088,6.447 10.617,14.577 10.617,24.47 0,11.889 -5.071,20.84 -15.156,26.881 -4.512,2.1 -8.391,3.158 -11.717,3.158 H 3.854 v -5.578 H 52.58 c 8.492,0 13.968,-0.683 16.489,-2.096 8.853,-4.312 13.289,-12.039 13.289,-23.178 0,-3.477 -1.325,-7.87 -3.998,-13.02 -2.654,-4.413 -6.994,-7.604 -13.031,-9.587 l -5.058,-0.847 H 24.629 c -6.05,0 -11.973,-2.968 -17.868,-9.014 -4.767,-6.281 -7.16,-12.776 -7.16,-19.428 v -1.316 c 0,-10.176 4.069,-18.486 12.226,-25.01 5.59,-3.367 11.644,-5.055 18.118,-5.055"
   id="path160"
   inkscape:connector-curvature="0" />
					</g>
				</g>
			</g>
		</g>
		<g
   id="g162">
			<g
   id="g164">
				<g
   id="g166">
					<g
   id="g168">
						<defs
   id="defs170">
							<rect
   id="SVGID_18_"
   x="-0.39899999"
   y="-1.42"
   width="547.63501"
   height="267.771" />
						</defs>
						<clipPath
   id="SVGID_19_">
							<use
   xlink:href="#SVGID_18_"
   overflow="visible"
   id="use174"
   style="overflow:visible"
   x="0"
   y="0"
   width="538.93298"
   height="266.35101" />
						</clipPath>
						<path
   clip-path="url(#SVGID_19_)"
   d="m 102.864,124.054 h 36.445 v 6.115 h -36.445 v 34.322 c 0.072,4.867 1.309,10.259 3.727,16.233 1.372,3.67 5.191,8.365 11.411,14.105 7.725,4.82 15.353,7.176 22.899,7.176 h 0.845 v 6.111 h -0.311 c -13.101,0 -24.308,-4.697 -33.543,-14.072 C 100.44,185.369 96.74,174.619 96.74,161.835 V 93.693 h 6.124 v 30.361 l 0,0 z"
   id="path176"
   inkscape:connector-curvature="0"
   style="fill:#120c15" />
					</g>
				</g>
			</g>
		</g>
		<g
   id="g178">
			<g
   id="g180">
				<g
   id="g182">
					<g
   id="g184">
						<defs
   id="defs186">
							<rect
   id="SVGID_20_"
   x="-0.39899999"
   y="-1.42"
   width="547.63501"
   height="267.771" />
						</defs>
						<clipPath
   id="SVGID_21_">
							<use
   xlink:href="#SVGID_20_"
   overflow="visible"
   id="use190"
   style="overflow:visible"
   x="0"
   y="0"
   width="538.93298"
   height="266.35101" />
						</clipPath>
						<path
   clip-path="url(#SVGID_21_)"
   d="m 155.545,136.006 c 6.453,-7.601 14.209,-11.429 23.153,-11.429 h 0.546 v 5.833 h -0.298 c -8.531,0 -15.1,3.49 -19.684,10.431 -2.303,3.123 -3.452,8.346 -3.452,15.714 v 51.562 h -6.12 v -83.812 h 5.854 v 11.701 l 10e-4,0 z"
   id="path192"
   inkscape:connector-curvature="0"
   style="fill:#120c15" />
					</g>
				</g>
			</g>
		</g>
	</g>
	<g
   enable-background="new    "
   id="g194">
		<path
   d="m 445.505,147.6 c 0.193,1.996 0.695,3.445 1.509,4.347 0.901,1.301 2.291,2.247 4.17,2.839 l 2.218,0.354 3.016,-0.532 c -1.626,-1.671 -2.485,-2.972 -2.574,-3.902 -0.413,-0.872 -0.621,-2.615 -0.621,-5.234 v -2.218 h 2.04 v 1.952 c 0,3.459 0.474,5.678 1.42,6.654 0.961,1.063 1.552,1.624 1.772,1.686 2.189,-1.287 3.283,-3.947 3.283,-7.985 v -2.307 h 1.862 v 3.814 c 0,3.18 -1.063,5.692 -3.193,7.54 1.242,0.297 2.188,0.444 2.838,0.444 h 0.09 l 0.089,0.088 0.088,-0.088 h 0.354 c 1.804,0 3.549,-0.71 5.234,-2.13 1.478,-1.641 2.247,-3.207 2.306,-4.701 V 129.06 h 1.953 v 18.542 c 0,3.104 -1.33,5.647 -3.993,7.628 -1.789,1.183 -3.562,1.773 -5.322,1.773 h -1.863 c -0.604,0 -1.849,-0.355 -3.726,-1.064 h -0.177 c -1.684,0.709 -2.957,1.064 -3.813,1.064 h -1.686 c -2.749,0 -5.235,-1.271 -7.452,-3.814 -1.301,-1.893 -1.95,-3.992 -1.95,-6.297 V 129.06 h 2.129 v 18.54 l -10e-4,0 z"
   id="path196"
   inkscape:connector-curvature="0"
   style="fill:#120c15" />
		<path
   d="m 489.771,129.15 c 4.083,0 7.6,1.361 10.558,4.08 l 1.418,1.773 c 1.536,2.366 2.308,4.968 2.308,7.807 v 0.622 H 478.24 v 0.443 c 0,2.381 0.858,4.716 2.573,7.007 1.921,1.849 3.637,2.972 5.145,3.371 1.508,0.473 2.779,0.71 3.813,0.71 5.19,0 8.916,-2.218 11.178,-6.653 0.354,-0.783 0.622,-1.73 0.799,-2.839 h 2.128 v 0.176 c 0,1.362 -0.709,3.284 -2.128,5.768 -1.642,2.145 -3.771,3.741 -6.387,4.79 -1.907,0.532 -3.415,0.799 -4.525,0.799 h -1.417 c -2.663,0 -5.322,-0.857 -7.985,-2.572 -2.188,-1.98 -3.488,-3.517 -3.902,-4.613 -1.006,-2.216 -1.509,-4.464 -1.509,-6.74 0,-2.262 0.592,-4.656 1.774,-7.186 1.554,-2.631 3.888,-4.554 7.009,-5.767 1.608,-0.474 3.264,-0.801 4.965,-0.976 z m -11.355,12.24 h 23.418 v -0.088 c -0.341,-2.204 -0.96,-3.888 -1.861,-5.057 -1.316,-1.877 -3.031,-3.207 -5.145,-3.991 -1.746,-0.621 -3.312,-0.946 -4.701,-0.976 -1.167,0 -2.854,0.324 -5.058,0.976 -1.434,0.65 -2.854,1.685 -4.257,3.104 -1.598,2.16 -2.396,4.17 -2.396,6.032 z"
   id="path198"
   inkscape:connector-curvature="0"
   style="fill:#120c15" />
		<path
   d="m 508.755,135.447 h 0.088 c 1.419,-2.556 3.845,-4.421 7.273,-5.588 1.449,-0.472 3.046,-0.709 4.791,-0.709 h 0.621 c 2.736,0 5.604,1.093 8.605,3.281 1.787,1.641 3.001,3.327 3.637,5.056 0.651,1.45 0.977,3.343 0.977,5.679 0,2.647 -0.504,4.836 -1.508,6.564 -1.243,2.764 -3.552,4.864 -6.921,6.299 -1.746,0.65 -3.697,0.975 -5.855,0.975 h -0.62 c -3.119,0 -6.166,-1.271 -9.137,-3.814 -0.771,-0.827 -1.419,-1.625 -1.951,-2.396 v 6.21 h -2.042 v -38.145 h 2.042 v 16.588 l 0,0 z m 0.178,7.007 v 0.443 l -0.089,0.09 0.089,0.089 v 0.355 c 0,5.248 2.66,8.885 7.983,10.91 1.285,0.354 2.587,0.53 3.902,0.53 4.464,0 7.924,-1.892 10.38,-5.677 1.004,-2.129 1.508,-4.169 1.508,-6.121 0,-2.898 -0.947,-5.558 -2.84,-7.983 -1.848,-1.686 -3.385,-2.69 -4.613,-3.016 -1.566,-0.532 -3.045,-0.799 -4.435,-0.799 -3.061,0 -5.87,1.036 -8.427,3.104 0,0.119 -0.268,0.415 -0.799,0.886 -1.774,2.266 -2.659,4.662 -2.659,7.189 z"
   id="path200"
   inkscape:connector-curvature="0"
   style="fill:#120c15" />
	</g>
	<g
   id="g202">
		<g
   id="g204">
			<g
   id="g206">
				<g
   id="g208">
					<g
   id="g210">
						<defs
   id="defs212">
							<rect
   id="SVGID_22_"
   x="-0.39899999"
   y="-1.42"
   width="547.63501"
   height="267.771" />
						</defs>
						<clipPath
   id="SVGID_23_">
							<use
   xlink:href="#SVGID_22_"
   overflow="visible"
   id="use216"
   style="overflow:visible"
   x="0"
   y="0"
   width="538.93298"
   height="266.35101" />
						</clipPath>
						<path
   clip-path="url(#SVGID_23_)"
   d="m 419.698,130.978 c 5.688,5.437 8.519,11.538 8.519,18.372 0,7.31 -3.116,13.543 -9.343,18.653 -4.5,2.781 -9.164,4.157 -13.977,3.996 h -34.871 l -4.988,1.047 c -6.914,3.149 -10.394,8.106 -10.394,14.905 l 0.522,4.246 c 2.396,7.97 8.601,11.98 18.661,11.98 h 51.407 v 5.875 H 372.46 l -6.04,-0.272 c -4.676,-1.159 -8.514,-3.138 -11.495,-5.892 -3.69,-4.171 -5.783,-8.399 -6.347,-12.786 v -5.57 l 0.569,-3.444 c 0.817,-3.641 3.102,-7.182 6.829,-10.635 3.619,-3.003 7.857,-4.831 12.664,-5.321 h 38.16 c 2.508,-0.187 5.468,-1.428 8.757,-3.717 4.245,-3.749 6.371,-8.007 6.371,-12.789 0,-1.797 -0.413,-3.82 -1.148,-6.133 -2.573,-7.446 -8.646,-11.18 -18.105,-11.18 H 353.268 V 126.2 h 48.062 c 7.982,0.005 14.116,1.615 18.368,4.778"
   id="path218"
   inkscape:connector-curvature="0" />
					</g>
				</g>
			</g>
		</g>
	</g>
</g>
</svg>