<?xml version="1.0" encoding="UTF-8" standalone="no"?>
<!-- Created with Inkscape (http://www.inkscape.org/) -->

<svg
   xmlns:dc="http://purl.org/dc/elements/1.1/"
   xmlns:cc="http://creativecommons.org/ns#"
   xmlns:rdf="http://www.w3.org/1999/02/22-rdf-syntax-ns#"
   xmlns:svg="http://www.w3.org/2000/svg"
   xmlns="http://www.w3.org/2000/svg"
   xmlns:sodipodi="http://sodipodi.sourceforge.net/DTD/sodipodi-0.dtd"
   xmlns:inkscape="http://www.inkscape.org/namespaces/inkscape"
   width="239.11626"
   height="38.447498"
   id="svg3476"
   version="1.1"
   inkscape:version="0.48.2 r9819"
   sodipodi:docname="LogoAnimafac.svg">
  <defs
     id="defs3478">
    <clipPath
       clipPathUnits="userSpaceOnUse"
       id="clipPath78">
      <path
         inkscape:connector-curvature="0"
         d="m 639.672,85.376 212.926,0 0,-88.258 -212.926,0 0,88.258 z"
         id="path80" />
    </clipPath>
    <clipPath
       clipPathUnits="userSpaceOnUse"
       id="clipPath86">
      <path
         inkscape:connector-curvature="0"
         d="M 0,0 859,0 859,1208 0,1208 0,0 z"
         id="path88" />
    </clipPath>
    <clipPath
       clipPathUnits="userSpaceOnUse"
       id="clipPath90">
      <path
         inkscape:connector-curvature="0"
         d="m 54.715,1085.449 830.227,0 0,-1178.137 -830.227,0 0,1178.137 z"
         id="path92" />
    </clipPath>
    <clipPath
       clipPathUnits="userSpaceOnUse"
       id="clipPath94">
      <path
         inkscape:connector-curvature="0"
         d="M 0,0 859,0 859,1208 0,1208 0,0 z"
         id="path96" />
    </clipPath>
  </defs>
  <sodipodi:namedview
     id="base"
     pagecolor="#ffffff"
     bordercolor="#666666"
     borderopacity="1.0"
     inkscape:pageopacity="0.0"
     inkscape:pageshadow="2"
     inkscape:zoom="1.3623077"
     inkscape:cx="134.28571"
     inkscape:cy="-3.6433935"
     inkscape:document-units="px"
     inkscape:current-layer="layer1"
     showgrid="false"
     fit-margin-top="0"
     fit-margin-left="0"
     fit-margin-right="0"
     fit-margin-bottom="0"
     inkscape:window-width="1280"
     inkscape:window-height="726"
     inkscape:window-x="0"
     inkscape:window-y="25"
     inkscape:window-maximized="1" />
  <metadata
     id="metadata3481">
    <rdf:RDF>
      <cc:Work
         rdf:about="">
        <dc:format>image/svg+xml</dc:format>
        <dc:type
           rdf:resource="http://purl.org/dc/dcmitype/StillImage" />
        <dc:title />
      </cc:Work>
    </rdf:RDF>
  </metadata>
  <g
     inkscape:label="Calque 1"
     inkscape:groupmode="layer"
     id="layer1"
     transform="translate(-210.7592,-524.17388)">
    <g
       transform="matrix(1.25,0,0,-1.25,-605.2608,617.4763)"
       id="g74">
      <g
         id="g76"
         clip-path="url(#clipPath78)">
        <g
           id="g82"
           transform="translate(0,-0.440063)">
          <g
             id="g84" />
          <g
             id="g98">
            <g
               clip-path="url(#clipPath86)"
               id="g100">
              <g
                 id="g102" />
              <g
                 id="g104">
                <g
                   clip-path="url(#clipPath90)"
                   id="g106">
                  <g
                     id="g108">
                    <g
                       id="g110" />
                    <g
                       id="g112">
                      <g
                         clip-path="url(#clipPath94)"
                         id="g114">
                        <g
                           id="g116" />
                        <g
                           id="g118">
                          <path
                             inkscape:connector-curvature="0"
                             d="m 749.281,64.457 -3.035,-3.035 -3.043,3.035 -10.707,0 0,-20.133 6.121,0 0,14.004 4.586,0 0,-6.078 6.078,0 0,6.078 4.586,0 0,-14.004 6.133,0 0,14.004 -6.133,6.129 -4.586,0 z m 39.164,0 0,-20.133 6.133,0 0,8.977 6.074,0 0,6.129 -6.074,0 0,5.027 9.172,0 0,6.133 -9.172,0 -6.133,-6.133 z m 28.5,-14.727 -6.078,0 0,2.325 6.078,0 0,-2.325 z m -9.66,17.614 0,-6.125 9.66,0 0,-3.039 -6.078,0 -6.121,-6.133 0,-7.723 18.332,0 0,16.895 -6.133,6.125 -9.66,0 z m 36.824,-9.016 0,6.129 -9.464,0 -6.133,-6.129 0,-7.871 6.133,-6.133 9.464,0 0,6.133 -9.464,0 0,7.871 9.464,0 z m -67.168,-8.598 -6.078,0 0,2.325 6.078,0 0,-2.325 z m -9.668,17.614 0,-6.125 9.668,0 0,-3.039 -6.078,0 -6.129,-6.133 0,-7.723 18.336,0 0,16.895 -6.129,6.125 -9.668,0 z m -46.238,-23.02 6.133,0 0,19.985 -6.133,0 0,-19.985 z m -23.765,20.133 0,-20.133 6.121,0 0,14.004 6.078,0 0,-14.004 6.133,0 0,14.004 -6.133,6.129 -12.199,0 z m -11.516,-6.078 -6.074,0 0,4.734 6.074,0 0,-4.734 z m 6.133,4.734 -6.133,6.129 -6.074,0 -6.133,-6.129 0,-18.789 6.133,0 0,7.981 6.074,0 0,-7.981 6.133,0 0,7.988 0.726,0 0,6.083 -0.726,0 0,4.718 z"
                             style="fill:#bd1823;fill-opacity:1;fill-rule:nonzero;stroke:none"
                             id="path188" />
                          <path
                             inkscape:connector-curvature="0"
                             d="m 663.578,67.949 4.82,-1.711 -1.089,-3.125 -4.371,1.559 1.082,-4.508 -3.25,-0.781 -1.082,4.504 -3.18,-3.383 -2.403,2.293 3.512,3.715 -4.801,1.66 1.079,3.133 4.363,-1.512 -1.082,4.508 3.246,0.781 1.082,-4.5 3.195,3.332 2.403,-2.293 -3.524,-3.672 z"
                             style="fill:#bd1823;fill-opacity:1;fill-rule:nonzero;stroke:none"
                             id="path190" />
                        </g>
                      </g>
                    </g>
                  </g>
                </g>
              </g>
            </g>
          </g>
        </g>
      </g>
    </g>
  </g>
</svg>
